# xmcd
#
# Track frame offsets:
#	150
#	17125
#	35040
#	51187
#	68808
#	86695
#	104016
#	123437
#	145456
#	163589
#
# Disc length: 2393 seconds
#
# Revision: 0
# Processed by: cddbd v1.5.2PL0 Copyright (c) Steve Scherf et al.
# Submitted via: dBpowerAMP V4.0
#
DISCID=9009570a
DTITLE=Jackie Bristow - Shot of Gold
DYEAR=2015
DGENRE=New Zealand: Country/Blues
TTITLE0=Whistle Blowin'
TTITLE1=Cry
TTITLE2=I Don't Want To Come Down
TTITLE3=Rollin' Stone
TTITLE4=Kiss You Goodbye
TTITLE5=Broken Record
TTITLE6=Shot of Gold
TTITLE7=Gotta Let Love Find You
TTITLE8=Fallen Youth
TTITLE9=Healing
EXTD=
EXTT0=
EXTT1=
EXTT2=
EXTT3=
EXTT4=
EXTT5=
EXTT6=
EXTT7=
EXTT8=
EXTT9=
PLAYORDER=
